<?xml version="1.0" encoding="UTF-8"?>
<svg id="Camada_2" data-name="Camada 2" xmlns="http://www.w3.org/2000/svg" viewBox="0 0 605.02 325.48">
  <defs>
    <style>
      .cls-1 {
        fill: #f5787d;
      }
    </style>
  </defs>
  <g id="Camada_1-2" data-name="Camada 1">
    <g>
      <path class="cls-1" d="m107.93,187.34h18.58v136.58h-16.82L18.38,218.74v105.18H0v-136.58h15.84l92.09,106.07v-106.07Z"/>
      <path class="cls-1" d="m155.93,187.34h19.55v136.58h-19.55v-136.58Z"/>
      <path class="cls-1" d="m279.61,256.65h45.85v57.88c-16.82,7.3-33.5,10.95-50.06,10.95-22.62,0-40.69-6.6-54.21-19.8-13.52-13.2-20.29-29.48-20.29-48.83,0-20.4,7.01-37.38,21.02-50.94,14.01-13.56,31.58-20.33,52.69-20.33,7.69,0,14.99.83,21.9,2.49,6.91,1.66,15.64,4.71,26.2,9.14v19.94c-16.29-9.45-32.46-14.18-48.49-14.18-14.93,0-27.5,5.08-37.74,15.25-10.23,10.17-15.35,22.65-15.35,37.44s5.12,28.19,15.35,38.03c10.23,9.84,23.4,14.76,39.5,14.76,7.82,0,17.17-1.79,28.06-5.38l1.86-.59v-28.45h-26.3v-17.4Z"/>
      <path class="cls-1" d="m450.3,187.34h19.55v136.58h-19.55v-59.44h-76.74v59.44h-19.55v-136.58h19.55v59.05h76.74v-59.05Z"/>
      <path class="cls-1" d="m488.33,187.14h114.09v17.4h-47.61v119.37h-19.65v-119.37h-46.83v-17.4Z"/>
      <path class="cls-1" d="m0,140.89V0h60.57l25.48,29.36L111.62,0h60.47v140.89h-62.41v-70.54l-23.64,27.24-23.64-27.24v70.54H0Z"/>
      <path class="cls-1" d="m199.7,140.89V0h62.32v140.89h-62.32Z"/>
      <path class="cls-1" d="m429.78,142h-47.27l-30.28-44.41v43.3h-62.32V0h44.59l32.87,47.64V0h62.41v142Z"/>
      <path class="cls-1" d="m584.62,20.73C571.01,6.91,551.72,0,526.73,0h-69.34v140.89h67.86c16.93,0,31.36-3.06,43.3-9.19,11.94-6.12,21-14.71,27.19-25.76,6.19-11.05,9.28-22.79,9.28-35.22,0-19.51-6.8-36.18-20.4-50Zm-50.14,63.82c-7.34,4.26-16.62,2.15-21.45-4.62,2.83.5,5.84.05,8.52-1.5,6.03-3.49,8.08-11.21,4.59-17.24-1.56-2.7-3.97-4.59-6.69-5.55,7.57-3.51,16.7-.74,20.97,6.62,4.52,7.8,1.86,17.78-5.93,22.3Z"/>
    </g>
  </g>
</svg>