<?xml version="1.0" encoding="UTF-8"?>
<svg id="Camada_2" data-name="Camada 2" xmlns="http://www.w3.org/2000/svg" viewBox="0 0 974.27 112.02">
  <defs>
    <style>
      .cls-1 {
        fill: #f5787d;
      }
    </style>
  </defs>
  <g id="Camada_1-2" data-name="Camada 1">
    <g>
      <path class="cls-1" d="m584.19,2.14h14.65v107.74h-13.26l-72.03-82.97v82.97h-14.5V2.14h12.49l72.65,83.68V2.14Z"/>
      <path class="cls-1" d="m622.05,2.14h15.42v107.74h-15.42V2.14Z"/>
      <path class="cls-1" d="m719.61,56.89h36.17v45.66c-13.26,5.76-26.43,8.64-39.49,8.64-17.84,0-32.1-5.21-42.76-15.62-10.67-10.41-16-23.25-16-38.52,0-16.09,5.53-29.49,16.58-40.18,11.05-10.69,24.91-16.04,41.57-16.04,6.07,0,11.83.66,17.28,1.97,5.45,1.31,12.34,3.71,20.67,7.21v15.73c-12.85-7.46-25.6-11.18-38.25-11.18-11.77,0-21.7,4.01-29.77,12.03-8.07,8.02-12.11,17.87-12.11,29.54s4.04,22.24,12.11,30c8.07,7.76,18.46,11.65,31.16,11.65,6.17,0,13.55-1.41,22.13-4.24l1.47-.46v-22.44h-20.75v-13.73Z"/>
      <path class="cls-1" d="m854.27,2.14h15.42v107.74h-15.42v-46.89h-60.54v46.89h-15.42V2.14h15.42v46.58h60.54V2.14Z"/>
      <path class="cls-1" d="m884.27,2.06h90v13.73h-37.56v94.16h-15.5V15.79h-36.94V2.06Z"/>
      <path class="cls-1" d="m0,111.58V.44h47.78l20.1,23.16L88.05.44h47.71v111.14h-49.23v-55.64l-18.65,21.49-18.65-21.49v55.64H0Z"/>
      <path class="cls-1" d="m157.54,111.58V.44h49.16v111.14h-49.16Z"/>
      <path class="cls-1" d="m339.03,112.02h-37.29l-23.89-35.03v34.16h-49.16V0h35.18l25.93,37.58V0h49.23v112.02Z"/>
      <path class="cls-1" d="m461.17,16.79C450.44,5.89,435.22.44,415.51.44h-54.7v111.14h53.53c13.35,0,24.74-2.42,34.16-7.25,9.42-4.83,16.57-11.6,21.45-20.32,4.88-8.72,7.32-17.98,7.32-27.79,0-15.39-5.37-28.54-16.1-39.44Zm-39.55,50.35c-5.79,3.36-13.11,1.69-16.92-3.65,2.23.4,4.61.04,6.72-1.19,4.76-2.76,6.38-8.85,3.62-13.6-1.23-2.13-3.13-3.62-5.28-4.38,5.97-2.77,13.18-.58,16.54,5.22,3.57,6.15,1.47,14.03-4.68,17.6Z"/>
    </g>
  </g>
</svg>